<?xml version="1.0" standalone="no"?>
<!DOCTYPE svg PUBLIC "-//W3C//DTD SVG 20010904//EN"
 "http://www.w3.org/TR/2001/REC-SVG-20010904/DTD/svg10.dtd">
<svg version="1.0" xmlns="http://www.w3.org/2000/svg"
 width="1523.000000pt" height="1523.000000pt" viewBox="0 0 1523.000000 1523.000000"
 preserveAspectRatio="xMidYMid meet">
<metadata>
Created by potrace 1.14, written by Peter Selinger 2001-2017
</metadata>
<g transform="translate(0.000000,1523.000000) scale(0.100000,-0.100000)"
fill="#000000" stroke="none">
<path d="M0 11400 l0 -3830 3780 0 3780 0 0 -3785 0 -3785 3835 0 3835 0 0
3835 0 3835 -3785 0 -3785 0 0 3780 0 3780 -3830 0 -3830 0 0 -3830z m6839
3134 c85 -25 170 -119 171 -190 0 -19 -8 -22 -61 -28 -96 -10 -97 -9 -113 28
-17 41 -42 56 -91 56 -74 0 -128 -71 -141 -184 l-7 -58 43 28 c40 26 52 29
130 29 79 0 91 -3 135 -30 70 -44 107 -114 113 -215 11 -189 -101 -312 -283
-312 -204 0 -307 140 -307 419 0 253 75 402 226 455 64 22 117 22 185 2z
m-563 -56 c-3 -29 -6 -63 -6 -75 0 -23 0 -23 -169 -23 l-168 0 -6 -42 c-3 -24
-9 -62 -13 -86 l-7 -42 44 25 c97 55 255 22 320 -68 80 -110 78 -292 -4 -398
-100 -130 -346 -153 -475 -44 -39 33 -69 88 -78 143 l-6 39 47 6 c89 13 135 9
135 -10 0 -31 39 -83 74 -99 42 -21 94 -12 134 21 52 43 68 155 33 231 -15 34
-28 45 -65 59 -61 24 -110 14 -152 -31 -31 -32 -37 -34 -98 -34 -36 0 -67 4
-71 9 -5 9 37 375 51 444 l6 27 240 0 241 0 -7 -52z m-3516 -1029 c483 -44
826 -247 986 -584 64 -135 86 -233 92 -408 6 -208 -19 -341 -91 -482 -99 -193
-297 -337 -552 -401 -52 -13 -64 -19 -49 -25 10 -4 31 -8 45 -8 51 -2 204 -52
294 -96 185 -91 332 -240 431 -440 79 -159 105 -270 111 -468 22 -677 -289
-1087 -928 -1226 -254 -55 -242 -54 -1401 -58 l-1078 -4 0 2105 0 2106 1013 0
c630 0 1055 -4 1127 -11z m3400 -1164 c495 -73 750 -282 846 -695 16 -68 18
-174 24 -1065 6 -980 6 -991 28 -1074 13 -47 36 -111 52 -143 l30 -58 -384 0
-384 0 -20 48 c-26 60 -41 125 -42 175 0 20 -2 37 -4 37 -3 0 -49 -30 -103
-67 -169 -115 -345 -189 -557 -235 -86 -19 -131 -22 -306 -22 -188 0 -213 3
-301 26 -261 71 -453 200 -579 393 -169 260 -194 623 -61 900 108 227 337 404
643 499 62 19 298 72 523 116 387 77 644 134 708 159 l29 11 -4 98 c-3 86 -7
106 -33 157 -72 141 -237 204 -530 204 -388 0 -531 -104 -548 -399 l-2 -45
-45 2 c-25 1 -182 7 -350 13 -168 6 -311 13 -319 16 -10 3 -12 20 -6 82 20
227 99 405 245 550 176 176 456 293 795 332 116 13 530 4 655 -15z m7557
-5370 c101 -30 160 -96 171 -191 10 -90 -29 -165 -99 -194 l-30 -13 43 -22
c24 -12 56 -40 73 -64 28 -40 30 -49 30 -129 0 -76 -3 -93 -27 -133 -51 -87
-145 -131 -278 -131 -139 0 -218 40 -264 135 -17 33 -27 73 -29 107 l-2 55 77
3 c83 3 79 6 93 -64 15 -74 112 -115 189 -79 61 29 85 118 51 185 -20 38 -41
49 -115 57 l-61 6 3 66 3 66 63 5 c54 4 67 9 88 33 26 31 30 58 13 106 -14 39
-54 61 -109 61 -34 0 -48 -6 -71 -31 -17 -18 -32 -47 -35 -70 -8 -47 -5 -47
-151 -14 -16 4 -23 13 -23 29 0 38 59 144 97 173 76 58 199 78 300 48z m848
-72 c-4 -38 -9 -71 -12 -75 -2 -5 -78 -8 -167 -8 l-164 0 -11 -75 c-15 -101
-15 -99 17 -77 67 48 166 50 255 5 145 -73 184 -319 73 -464 -80 -105 -258
-144 -401 -89 -75 29 -138 106 -151 186 -6 40 -5 42 22 48 16 3 55 6 88 8 l58
2 13 -38 c17 -50 41 -74 84 -86 42 -11 100 1 124 28 46 51 61 164 31 228 -38
81 -173 95 -226 24 -20 -28 -26 -30 -89 -30 -37 0 -70 4 -74 9 -5 9 37 375 51
444 l6 27 240 0 240 0 -7 -67z m-3634 -964 c257 -26 481 -100 654 -218 129
-87 262 -243 320 -376 151 -341 112 -756 -94 -1011 -95 -118 -265 -219 -446
-267 l-89 -24 75 -12 c388 -62 694 -349 798 -744 59 -225 44 -538 -35 -782
-121 -371 -405 -603 -860 -704 -245 -55 -237 -54 -1401 -58 l-1083 -4 0 2106
0 2105 1029 0 c648 0 1067 -4 1132 -11z m3407 -1506 l-3 -368 -101 -6 c-406
-25 -691 -228 -788 -560 -42 -147 -46 -233 -46 -1019 l0 -740 -360 0 -360 0 0
1495 0 1495 360 0 360 0 0 -205 c0 -113 3 -205 8 -205 4 0 23 29 42 63 48 85
187 224 275 274 160 92 337 139 533 142 l82 1 -2 -367z"/>
<path d="M6681 14068 c-46 -25 -66 -64 -66 -131 1 -71 20 -108 66 -127 40 -17
106 -7 135 21 52 49 54 156 5 211 -31 35 -100 48 -140 26z"/>
<path d="M1417 12823 c-4 -3 -7 -242 -7 -530 l0 -524 563 3 c628 4 614 3 773
79 127 60 213 164 250 302 18 69 18 228 -1 302 -55 209 -229 333 -510 365 -99
11 -1058 14 -1068 3z"/>
<path d="M1410 10561 l0 -611 573 0 c607 0 692 5 837 47 108 31 171 65 236
129 99 96 144 224 144 409 0 341 -142 526 -470 612 -57 15 -141 17 -692 20
l-628 4 0 -610z"/>
<path d="M6280 10730 c-39 -26 -223 -74 -510 -134 -173 -37 -353 -78 -400 -93
-147 -46 -251 -137 -281 -246 -7 -23 -12 -76 -12 -117 -1 -94 30 -168 98 -235
78 -78 231 -135 365 -135 288 1 570 123 687 298 68 101 74 134 80 410 3 137 2
247 -3 252 -5 5 -15 5 -24 0z"/>
<path d="M9567 5254 c-4 -4 -7 -243 -7 -531 l0 -524 558 4 c617 4 620 4 770
73 191 87 299 285 277 508 -24 248 -157 389 -430 453 -59 13 -156 17 -615 20
-300 3 -548 1 -553 -3z"/>
<path d="M9560 2991 l0 -611 568 0 c312 0 605 5 652 10 199 23 339 78 431 170
104 104 143 215 142 410 -1 209 -46 333 -160 447 -72 72 -165 121 -293 155
-83 21 -102 22 -712 25 l-628 4 0 -610z"/>
</g>
</svg>
