<svg
    width="250"
    height="50"
    viewBox="0 0 66.145832 13.229167"
    version="1.1"
    id="signatureJT"
    xmlns="http://www.w3.org/2000/svg"
    xmlns:svg="http://www.w3.org/2000/svg">
    <g>
        <path
            stroke="black"
            stroke-linecap="round"
            stroke-linejoin="round"
            stroke-width=0.25
            id="signatureJT1"
            d="m 1.9710243,2.0839133 c 0.1489227,0.010269 0.2984427,0.013641 0.4464477,0.034078 0.093561,0.012919 0.064334,-0.00377 0.1070565,0.027258 0.099836,0.1287882 0.1949079,0.2619112 0.2857153,0.3978004 0.083563,0.124629 0.1501635,0.266806 0.2611467,0.3709328 0.029419,0.027602 0.062957,0.050455 0.094436,0.075683 C 3.4254519,3.1494073 3.7269176,3.1328296 4.0173693,3.0964229 4.3414309,3.0528529 4.6326292,2.9144182 4.9144621,2.7566278 5.138721,2.6105499 5.370604,2.4773829 5.606207,2.3506713 5.828548,2.2420161 6.0490845,2.1282036 6.2791712,2.0365737 c 0.014661,-0.00369 0.052203,-0.023742 0.043982,-0.011056 -0.00896,0.01382 -0.030491,0.017011 -0.046896,0.015552 -0.059686,-0.00531 -0.1210003,-0.012191 -0.176244,-0.035401 -0.037495,-0.015753 -0.063035,-0.051427 -0.093781,-0.078048 -0.00804,-0.00696 -0.012949,-0.027321 -0.022479,-0.022617 -0.010763,0.00531 -0.00278,0.023846 -0.00417,0.035769 -0.00177,0.264365 -0.074871,0.522881 -0.1363448,0.7784091 C 5.7411749,3.1699191 5.6616242,3.6244029 5.6087803,4.083414 5.5271055,4.9223122 5.4556805,5.7621838 5.3680862,6.6004928 5.2987492,7.1709443 5.2338131,7.7427025 5.1293905,8.3081166 5.0822957,8.5631185 5.0327448,8.7779343 4.9770926,9.030287 4.858019,9.5778991 4.6704887,10.106493 4.4782033,10.631703 c -0.1382009,0.376143 -0.3041586,0.740239 -0.5073586,1.085575 -0.031745,0.04649 -0.081191,0.125883 -0.1250149,0.168095 -0.00704,0.0068 -0.048766,0.02364 -0.058445,0.02626 -0.00788,0.0021 -0.031218,0.0077 -0.024276,0.0034 0.023453,-0.01455 0.050056,-0.02328 0.075083,-0.03491 -0.1111594,-0.133188 -0.2149917,-0.270858 -0.2801914,-0.434361 -0.022873,-0.05736 -0.038796,-0.117256 -0.058194,-0.175884 -0.052117,-0.290947 -0.05558,-0.602277 0.038547,-0.8866 C 3.592318,10.220263 3.7000648,10.052859 3.7841613,9.9069852 4.0376437,9.5419448 4.3440762,9.2181459 4.7238628,8.9838111 4.7839405,8.9467424 4.8474148,8.915484 4.9091905,8.8813205 5.2092132,8.7241596 5.5326044,8.6291551 5.8696081,8.6026991 6.085438,8.5929466 6.1863382,8.7221355 6.327015,8.8648121 6.485016,9.023031 6.6193868,9.2152537 6.8082752,9.34034 6.8560242,9.37196 6.9083985,9.395969 6.9584604,9.423784 7.0230714,9.441929 7.085781,9.469278 7.1522933,9.478216 7.5908434,9.5371503 7.9136289,9.2049572 8.1948326,8.9225203 8.5826927,8.5028883 8.8880729,8.0184187 9.1558524,7.5160758 9.3702379,7.0880416 9.5584279,6.6473214 9.7448528,6.2065555 9.865644,5.9078883 9.9827409,5.6077376 10.096259,5.3062324 c 0.01404,-0.034055 0.03458,-0.088704 0.05457,-0.1238104 0.0061,-0.010713 -0.0042,0.028805 -0.01555,0.033553 C 9.9987038,5.2729828 9.8633988,5.3823369 9.716586,5.3636795 9.4481543,5.3295663 9.4627413,4.9872957 9.4609689,5.1761826 c 0.01443,0.4106743 0.010448,0.8218241 0.010348,1.2326953 -0.00663,0.4761902 0.00821,0.9519062 0.077759,1.4232776 0.043303,0.2204508 0.1001588,0.4675883 0.2684314,0.6312805 0.040932,0.039818 0.090708,0.069395 0.1360612,0.1040918 0.05853,0.02259 0.1149445,0.051702 0.1755895,0.06777 0.379665,0.1005911 0.744646,-0.1135705 1.058295,-0.2971305 0.605257,-0.4104386 1.113287,-0.9452991 1.601497,-1.4851113 0.377768,-0.4246999 0.714253,-0.883167 1.049578,-1.3413541 0.02452,-0.031521 0.04777,-0.064077 0.07356,-0.094564 0.07811,-0.092319 0.06645,0.194696 -0.188786,0.094836 -0.499632,-0.1954807 -0.390676,-0.5937813 -0.490314,-0.2291611 -0.12312,0.4401949 -0.21421,0.8878861 -0.287104,1.3388347 -0.06074,0.392846 -0.08685,0.7895799 -0.09961,1.1865055 -0.0085,0.2243587 -0.0016,0.4675446 0.149114,0.650264 0.03385,0.041034 0.07817,0.072168 0.117261,0.1082511 0.06953,0.027438 0.135089,0.068741 0.208597,0.082312 0.353555,0.065276 0.642725,-0.2271729 0.863851,-0.4527696 0.350144,-0.3766068 0.624633,-0.8124957 0.896725,-1.246338 0.404182,-0.6458887 0.748343,-1.3270262 1.095133,-2.0047786 0.216824,-0.4685927 0.46053,-0.9252728 0.66294,-1.4004618 0.0931,-0.21898 0.120383,-0.4518924 0.126076,-0.6871494 0.0011,-0.1708277 -0.002,-0.3416468 -0.0037,-0.5124608 -0.0012,-0.1105018 -0.0015,-0.2210092 -0.0017,-0.3315161 -1.4e-5,-0.00371 0.0037,-0.011256 -4.3e-5,-0.011131 -0.864691,0.029063 -0.79378,-0.1964946 -0.793768,0.2697011 4e-6,0.127483 9e-6,0.254966 1.3e-5,0.382449 0.01,0.5036791 -0.0056,1.0060723 -0.03692,1.5086608 -0.04139,0.5002429 -0.101506,0.998738 -0.151774,1.4981504 -0.04489,0.4659532 -0.08411,0.9312788 -0.08689,1.3995323 0.01768,0.3474807 0.05035,0.6851269 0.187398,1.00735 0.170196,0.3089386 0.440202,0.3499546 0.759312,0.3611753 0.311066,0.00706 0.586098,-0.1189861 0.844971,-0.2781808 0.266707,-0.161992 0.516113,-0.3486497 0.749408,-0.555407 0.254684,-0.2343862 0.493336,-0.4838949 0.724097,-0.7415583 0.173096,-0.1989674 0.342666,-0.4008797 0.502958,-0.6103784 0.113858,-0.1639107 0.216909,-0.3344957 0.316465,-0.5072837 0.0054,-0.00767 0.02126,-0.030895 0.01621,-0.022992 -0.151002,0.2363988 -0.201173,-0.081119 -0.715969,-0.2203792 -0.01881,-0.00509 -0.01292,0.036807 -0.01782,0.055664 -0.02122,0.081713 -0.05802,0.250666 -0.07527,0.3280712 -0.08329,0.4009575 -0.162574,0.8027379 -0.244699,1.2039803 -0.07071,0.3411818 -0.09564,0.688729 -0.108915,1.0361282 0.0048,0.21239 0.01434,0.448292 0.135414,0.632719 0.02719,0.041414 0.06298,0.076492 0.09447,0.1147382 0.05632,0.03565 0.107243,0.081753 0.168947,0.1069488 0.269327,0.1099759 0.568246,0.00954 0.825856,-0.078166 0.344431,-0.1312312 0.670815,-0.3006582 0.974703,-0.5085395 0.340902,-0.2338048 0.628547,-0.5310356 0.912061,-0.8291184 0.285882,-0.3143297 0.56647,-0.6330415 0.831424,-0.9652431 0.219813,-0.2683288 0.41482,-0.5563558 0.598656,-0.8502168 0.09942,-0.1600359 0.02738,-0.041723 0.120563,-0.2008381 0.01186,-0.020249 0.03223,-0.037305 0.03607,-0.060453 0.0034,-0.020685 -0.01428,0.057013 -0.03474,0.052441 -0.231562,-0.051732 -0.444794,-0.1772544 -0.679505,-0.2120051 -0.03639,-0.00539 -0.01454,0.072114 -0.02181,0.1081712 -0.12539,0.5927496 -0.254106,1.1841121 -0.349899,1.7825038 -0.04143,0.2894529 -0.08031,0.5792862 -0.09802,0.8713028 -0.0058,0.095932 -0.01394,0.267198 -0.0038,0.367297 0.0059,0.058765 0.02019,0.1163904 0.03028,0.1745858 0.0319,0.067265 0.05003,0.1430105 0.09572,0.201794 0.144201,0.1855475 0.285222,0.2381245 0.529033,0.2250342 0.23022,-0.012361 0.509771,-0.2425194 0.684396,-0.3747772 0.470503,-0.3678291 0.846836,-0.835473 1.224273,-1.2938443 0.29226,-0.3528957 0.56463,-0.7211152 0.821385,-1.1004089 0.124188,-0.1752261 0.241211,-0.3538744 0.323793,-0.5525752 0.0065,-0.018775 0.03836,-0.050088 0.01949,-0.056328 -0.252158,-0.083402 -0.508067,-0.1752312 -0.77307,-0.1929215 -0.04785,-0.00319 -0.02586,0.092365 -0.03789,0.1387862 -0.0446,0.1720807 -0.08443,0.3451849 -0.129847,0.5170865 -0.116606,0.4356341 -0.257657,0.8641813 -0.372967,1.3001572 -0.05711,0.2484806 -0.116727,0.4997628 -0.124419,0.7558924 -0.0038,0.1275284 0.0049,0.2006989 0.01464,0.3247006 0.03125,0.2776731 0.141064,0.540843 0.388418,0.6923125 0.04673,0.028617 0.09961,0.045705 0.149413,0.068558 0.418398,0.1231059 0.787953,-0.017108 1.140797,-0.2532096 0.0998,-0.066781 0.191144,-0.1454074 0.286717,-0.2181112 0.524671,-0.4385855 0.950005,-0.9736399 1.36766,-1.5105398 0.240067,-0.3077432 0.482592,-0.6142844 0.77142,-0.8779047 0.0912,-0.070399 0.207705,-0.164075 0.330454,-0.1619073 -0.01085,0.00462 -0.03181,0.00212 -0.03251,0.01387 -7.94e-4,0.011187 0.02289,0.00542 0.0309,0.013253 0.0029,0.00283 -0.01151,0.00521 -0.0089,0.00828 0.01212,0.014118 0.03105,0.02078 0.04468,0.033436 0.01736,0.016105 0.02614,0.039488 0.0397,0.058883 0.111154,0.213355 0.177535,0.4463372 0.250264,0.6745901 0.113853,0.3939246 0.16509,0.8013769 0.192656,1.2093204 0.0024,0.3548997 -0.06587,0.707738 -0.179636,1.0430267 -0.04262,0.1054312 -0.07917,0.2171808 -0.14429,0.311913 -0.04349,0.063267 -0.115036,0.114362 -0.171897,0.1637853 -0.122304,0.089 -0.280178,0.1312664 -0.430726,0.1205087 -0.117647,-0.026569 -0.231093,-0.060635 -0.315325,-0.1506045 -0.04725,-0.061411 0.04398,0.056862 0.0429,0.059656 -0.07583,0.1970358 -0.195845,0.3741968 -0.300662,0.5574648 -0.0038,0.0066 -0.02904,0.0041 -0.02183,0.0064 0.06429,0.02042 0.133207,0.02139 0.199914,0.03142 0.29306,0.04469 0.602808,0.03066 0.863679,-0.127595 0.0742,-0.04501 0.138716,-0.104307 0.208076,-0.15646 0.35904,-0.3882678 0.644639,-0.8378769 0.940457,-1.2746074 0.269216,-0.4170043 0.572248,-0.8094213 0.903435,-1.1786092 0.300601,-0.3046222 0.658506,-0.5445625 1.018881,-0.7719949 0.168471,-0.088088 0.480013,-0.3108431 0.6809,-0.2899828 0.33278,0.09548 0.646272,0.2437058 0.970921,0.362177 0.383278,0.1266751 0.783484,0.217806 1.187688,0.2412407 0.08628,0.005 0.172815,0.00303 0.259225,0.00454 0.350608,-0.00582 0.695812,-0.073897 1.027983,-0.1834139 -0.130577,-0.2279708 -0.211547,-0.4927195 -0.391731,-0.6839127 -0.04311,-0.045746 -0.109196,0.062391 -0.16229,0.09604 -0.07218,0.045742 -0.142571,0.094244 -0.213395,0.142054 -0.249507,0.1684341 -0.490214,0.3456202 -0.728982,0.5288786 -0.357847,0.2699353 -0.668682,0.5929405 -0.991135,0.9022455 -0.706207,0.6774117 0.244782,-0.247296 -0.457906,0.4380849 -0.352772,0.3486799 -0.721567,0.680719 -1.076809,1.0267789 -0.272738,0.2874362 -0.64061,0.5752263 -0.233215,1.0087173 0.09592,0.102062 0.261065,0.101553 0.391597,0.15233 0.60833,0.108846 1.229741,0.123184 1.831456,0.268778 0.221332,0.05077 0.385781,0.19006 0.555874,0.330991 0.24107,0.199741 0.106434,0.0924 0.367982,0.293288 0.255424,0.177127 0.515816,0.37953 0.820304,0.466288 0.04778,0.01361 0.09721,0.02058 0.145809,0.03087 0.06473,-0.0028 0.131456,0.0077 0.194188,-0.0085 0.26094,-0.06738 0.394261,-0.268903 0.522979,-0.483918 0.284236,-0.483972 -0.400204,-0.885943 -0.684441,-0.401971 v 0 c -0.01241,0.02189 -0.02413,0.04418 -0.03724,0.06566 -0.01222,0.02001 -0.03373,0.03582 -0.03866,0.05873 -0.0019,0.0089 0.01804,-0.0028 0.02699,-0.0045 0.116496,-0.02271 0.06277,-0.02644 0.151283,-0.0077 -0.04833,0.008 -0.134691,-0.03942 -0.172034,-0.05845 -0.157814,-0.08046 -0.304583,-0.181154 -0.446442,-0.286618 -0.385025,-0.294131 -0.73432,-0.65349 -1.223505,-0.766539 -0.08454,-0.01971 -0.168439,-0.0424 -0.253616,-0.05914 -0.518698,-0.1019367 -1.049431,-0.1195037 -1.570183,-0.2077862 -0.100627,0.1596132 0.04064,-0.087033 0.01151,0.3693402 -0.0024,0.03762 -0.0619,0.05316 -0.068,0.09036 -0.0053,0.03249 0.04302,-0.04986 0.06533,-0.07407 0.06456,-0.07009 0.132596,-0.136926 0.196202,-0.207913 0.354904,-0.3465139 0.724612,-0.6777572 1.076992,-1.0269553 0.624625,-0.6098225 -0.21984,0.2119177 0.459017,-0.4391713 0.299572,-0.2873187 0.587106,-0.5887239 0.919295,-0.8398515 0.224848,-0.1729854 0.45193,-0.3391369 0.686652,-0.4985092 0.05903,-0.040082 0.117531,-0.080998 0.177618,-0.1194808 0.04354,-0.027883 0.139369,-0.028219 0.133151,-0.079545 C 36.288349,6.7845521 36.163347,6.5384404 36.084747,6.2824754 35.837189,6.3665774 35.57861,6.4170448 35.31699,6.4251617 34.914111,6.4239182 34.513588,6.3579123 34.131913,6.2269946 33.707939,6.0739387 33.299224,5.8488029 32.841807,5.8186224 c -0.06956,0.00697 -0.139859,0.00869 -0.208698,0.020905 -0.308075,0.054652 -0.580011,0.2440085 -0.848275,0.3905604 -0.421675,0.2673128 -0.838682,0.5509734 -1.185778,0.9131959 -0.354486,0.3962799 -0.680506,0.8161599 -0.96938,1.2630684 -0.253686,0.3745312 -0.504135,0.7522115 -0.786615,1.105998 -0.139459,0.1532546 -0.255595,0.1389806 -0.450794,0.1128146 -0.04001,-0.00597 -0.337553,-0.056611 -0.348832,-0.044773 -0.395139,0.4146751 -0.495885,0.4790473 -0.220475,0.7645103 0.256731,0.220898 0.513173,0.325585 0.85279,0.35467 0.06446,-0.0022 0.129196,-4.23e-4 0.193397,-0.0067 0.276368,-0.02691 0.54125,-0.140609 0.756854,-0.312791 0.08693,-0.07768 0.155519,-0.133784 0.23151,-0.224756 C 30.00396,9.9800261 30.09431,9.7706467 30.170603,9.5575262 30.310411,9.122806 30.402672,8.671149 30.388072,8.2121845 30.355208,7.7409748 30.294275,7.2705571 30.159805,6.8162677 30.058287,6.4977877 29.965072,6.1689988 29.775231,5.8895432 29.545932,5.6120172 29.32686,5.4711602 28.954552,5.471101 c -0.04897,0.00941 -0.0986,0.015856 -0.146902,0.028219 -0.222692,0.056992 -0.42268,0.1848681 -0.595263,0.3326064 -0.320299,0.2949342 -0.595831,0.6311183 -0.861409,0.9755124 -0.376933,0.4846029 -0.757624,0.9700217 -1.227212,1.3703765 -0.221198,0.1756585 -0.163297,0.1431793 -0.39029,0.2759763 -0.08113,0.04746 -0.163239,0.086369 -0.258783,0.084912 -0.0011,0.00455 0.01276,0.049523 0.0095,0.049368 -0.03723,-0.00175 -0.04358,-0.134997 -0.04858,-0.1373288 -0.0048,-0.054748 -0.01451,-0.1487376 -0.01388,-0.2047166 0.0024,-0.206308 0.05686,-0.408342 0.100108,-0.6085334 0.114515,-0.436136 0.25775,-0.8640749 0.372942,-1.3000601 0.0067,-0.025453 0.153031,-0.5974347 0.150399,-0.5988905 -0.231756,-0.1281887 -0.928531,-0.1313976 -0.730484,-0.3125382 -0.06046,0.1487659 -0.157519,0.2774058 -0.24726,0.4100914 -0.242755,0.3587782 -0.500304,0.707045 -0.776793,1.0407552 -0.339214,0.4120047 -0.674386,0.8358217 -1.095124,1.1689734 -0.04938,0.03871 -0.09768,0.078817 -0.148123,0.1161293 -0.03482,0.025755 -0.07555,0.043731 -0.107494,0.072969 -0.03499,0.032025 0.0585,0.02517 0.141216,0.088948 0.02912,0.02245 0.04774,0.056935 0.06363,0.090087 0.0069,0.014303 0.0016,0.031686 0.0024,0.04753 -0.03526,-0.096501 -0.0177,-0.2227625 -0.01202,-0.321062 0.01562,-0.2699489 0.05262,-0.5377061 0.0903,-0.8053004 0.09451,-0.5942661 0.224873,-1.1809507 0.347698,-1.769855 C 23.641153,5.1467811 23.687462,5.2533592 22.937056,4.9645324 22.907128,4.9530124 22.719038,5.287745 22.697437,5.319985 22.530433,5.5884561 22.35189,5.8509243 22.151465,6.0956798 21.90108,6.4100916 21.635179,6.7110752 21.365337,7.0088982 21.119893,7.2675196 20.872794,7.5276627 20.57801,7.7313668 20.335283,7.9006591 20.071411,8.03311 19.796431,8.1424949 c -0.06087,0.021082 -0.120492,0.046207 -0.18266,0.063069 -0.02222,0.00603 -0.04528,0.00845 -0.06777,0.013449 -0.0088,0.00196 -0.03013,-7.144e-4 -0.02614,0.00742 0.02003,0.040836 0.115524,0.012081 0.107608,0.083909 0.01217,0.020997 0.04519,0.048228 0.02936,0.066624 -0.0041,0.00477 -0.0074,-0.01048 -0.0091,-0.016531 -0.0055,-0.019672 -0.0086,-0.039939 -0.01238,-0.060024 -0.01448,-0.077891 -0.0097,-0.058375 -0.01289,-0.1533813 0.01135,-0.304042 0.03163,-0.6083654 0.09338,-0.9070342 0.08111,-0.3967761 0.159708,-0.7940292 0.241829,-1.1905475 C 19.985338,5.9250683 20.066894,5.59791 20.063196,5.5947927 19.5031,5.1225593 19.495252,5.0201097 19.287884,5.3404667 19.205494,5.4836005 19.120395,5.624862 19.028411,5.7621363 18.88107,5.9555396 18.724215,6.141094 18.564996,6.3247246 18.353961,6.5604107 18.136357,6.7889837 17.90364,7.0036428 17.705205,7.1824567 17.488974,7.3392506 17.261108,7.4787405 17.139434,7.5576345 17.01205,7.63373 16.862812,7.6360324 c -0.0254,-6.614e-4 -0.05081,-0.00106 -0.0762,-0.00198 -0.153997,-0.00562 0.003,0.00957 0.01306,0.1025414 -0.03812,-0.057263 -0.04736,-0.1387133 -0.05984,-0.2034659 C 16.71009,7.3785351 16.694,7.2222381 16.6849,7.0651033 16.687,6.6219657 16.72604,6.1817726 16.76781,5.740768 c 0.0512,-0.5094499 0.112919,-1.0179243 0.154227,-1.5282995 0.03226,-0.5189992 0.04849,-1.0378641 0.03845,-1.5579706 -4e-6,-0.1274788 -9e-6,-0.2549577 -1.3e-5,-0.3824365 -1.2e-5,-0.4662518 0.07096,-0.2386711 -0.793726,-0.2665326 -0.0032,-1.018e-4 2.6e-5,0.00632 3.9e-5,0.00948 2.14e-4,0.1127466 5.56e-4,0.2254937 0.0017,0.3382351 0.0017,0.1623121 0.0045,0.3246262 0.0039,0.4869507 -0.0025,0.134561 -0.01011,0.2682716 -0.06318,0.3943207 -0.193676,0.4582972 -0.431886,0.8968237 -0.638914,1.3490453 -0.336229,0.6572594 -0.669464,1.3180896 -1.060997,1.944665 -0.242691,0.3872037 -0.485148,0.777915 -0.794945,1.1163321 -0.03371,0.035599 -0.06673,0.07186 -0.101127,0.1067972 -0.02099,0.021323 -0.04239,0.04231 -0.06498,0.061926 -0.01542,0.013385 -0.03725,0.020137 -0.04887,0.036925 -0.0037,0.00533 0.01136,0.00659 0.01763,0.00819 0.127149,0.032535 0.02491,-0.013134 0.17228,0.073575 0.03707,0.045437 0.0477,0.04784 0.06254,0.1022247 0.0015,0.00545 0.002,0.021145 -0.0017,0.01687 -0.03368,-0.038946 8.46e-4,-0.1801071 -0.0105,-0.2176079 0.01149,-0.3631419 0.03474,-0.7261436 0.08991,-1.0856163 0.06788,-0.4232648 0.15382,-0.8432755 0.269283,-1.2563692 0.0067,-0.024696 0.08212,-0.2902945 0.07195,-0.3059853 -0.115654,-0.1784861 -0.249202,-0.3683505 -0.440237,-0.461831 -0.151784,-0.074273 -0.358822,0.2270254 -0.432542,0.3192618 -0.31926,0.4362382 -0.638908,0.8732944 -0.998081,1.2780873 -0.434716,0.4819576 -0.886075,0.9602192 -1.418918,1.3353719 -0.180208,0.1103048 -0.126912,0.085137 -0.30037,0.1661144 -0.02563,0.011964 -0.05151,0.023413 -0.07769,0.034119 -0.03057,0.012502 -0.04935,0.013769 -0.04815,0.017672 0.0032,0.010409 0.01567,0.015121 0.02351,0.02268 0.01588,0.019193 0.05848,0.080053 0.04051,0.062801 -0.0574,-0.055111 -0.06636,-0.1772616 -0.08462,-0.2444018 -0.06494,-0.4324696 -0.07419,-0.8693882 -0.06912,-1.3062997 1.05e-4,-0.4330851 0.0051,-0.8665766 -0.01314,-1.2993624 C 10.230212,4.9136156 10.234469,4.6849442 9.9532127,4.6060232 9.570853,4.498732 9.4499791,4.7864947 9.3533393,5.0267086 9.2436875,5.3183461 9.1302103,5.6085265 9.0137249,5.897501 8.8365226,6.3169553 8.6572914,6.7362101 8.4546373,7.1441089 8.2250266,7.5794435 7.9611227,7.9986199 7.6299615,8.3648652 c -0.045325,0.046417 -0.08941,0.094078 -0.1359739,0.139252 -0.037032,0.035927 -0.076013,0.069799 -0.1146974,0.1039405 -0.022085,0.019492 -0.048551,0.034454 -0.067583,0.056935 -0.00685,0.00809 0.00601,0.04036 0.00538,0.050684 C 7.2524614,8.700151 7.2216546,8.6547824 7.173864,8.6076897 7.0744039,8.5096822 6.9836823,8.4042786 6.8876145,8.3028942 6.5470753,7.9669906 6.2963736,7.794895 5.7986345,7.8121249 5.3503475,7.8556751 4.9181548,7.9739536 4.5199874,8.189529 4.2942451,8.3181601 4.2387456,8.3403957 4.0273353,8.5003808 3.6567438,8.7808267 3.3506137,9.132219 3.0926159,9.5173341 2.938213,9.7961729 2.8544686,9.9130042 2.7610236,10.222576 c -0.1281455,0.424531 -0.1094959,0.883632 -0.010155,1.310259 0.032902,0.09032 0.060051,0.182945 0.098706,0.270955 0.1378365,0.313822 0.3644442,0.638466 0.6818545,0.79159 0.072859,0.03515 0.1539031,0.04989 0.2308548,0.07484 0.095474,-0.0049 0.1922848,0.002 0.2864231,-0.01461 0.051375,-0.0091 0.097837,-0.03705 0.1439359,-0.06148 C 4.3955424,12.486595 4.5387066,12.311177 4.6559057,12.118159 4.8813555,11.731132 5.0701191,11.32558 5.2235814,10.904512 5.427945,10.345964 5.6258621,9.7834404 5.7522321,9.2010834 5.8125219,8.9272315 5.8609788,8.7177942 5.9120902,8.4400018 6.0191456,7.8581505 6.0865329,7.2699326 6.1575285,6.6829148 6.2447206,5.847132 6.3164222,5.0098541 6.39739,4.1734533 6.4456928,3.7464335 6.5210337,3.3240389 6.6150042,2.9046392 6.6948237,2.5721191 6.783603,2.2353487 6.7717323,1.8905991 6.758728,1.7601844 6.7605139,1.6440493 6.6904438,1.5252841 6.5272181,1.2486219 6.2649155,1.1961114 5.9831522,1.3000795 5.7262103,1.4040558 5.4779362,1.5279614 5.2300526,1.6516997 4.9903567,1.7807582 4.7533128,1.9148344 4.5257547,2.0645583 4.3319908,2.1737975 4.1363331,2.2780666 3.9125974,2.3096141 c -0.072611,0.010604 -0.1048715,0.017642 -0.1765527,0.019717 -0.1309156,0.00379 -0.037959,-0.00599 -0.1043697,0.00161 -0.00438,5.027e-4 -0.011531,-0.00256 -0.013147,0.00155 -0.00167,0.00425 0.00548,0.00732 0.00822,0.010978 0.006,0.00728 0.021426,0.030897 0.014954,0.024031 C 3.5701094,2.2915122 3.5349341,2.1826633 3.4700879,2.1018641 3.2850762,1.8253005 3.0977485,1.5407119 2.7852322,1.3955344 2.7308116,1.3790517 2.6772584,1.3593722 2.6219702,1.3460864 2.4103034,1.2952224 2.1859559,1.311709 1.9710243,1.2901634 c -0.561266,0 -0.561266,0.7937499 0,0.7937499 z" />
        <path
            stroke="black"
            stroke-linecap="round"
            stroke-linejoin="round"
            stroke-width=0.25
            id="signatureJT8"
            d="m 20.073103,4.0653824 c 0.09969,-0.061852 0.195511,-0.1290053 0.290518,-0.1977231 0.453726,-0.3303818 -0.0135,-0.9720477 -0.46723,-0.6416659 v 0 c -0.09053,0.066527 -0.183717,0.1287285 -0.278474,0.1891239 -0.459807,0.3218648 -0.0046,0.9721302 0.455186,0.6502651 z" />
        <path
            stroke="black"
            stroke-linecap="round"
            stroke-linejoin="round"
            stroke-width=0.25
            id="signatureJT2"
            d="m 36.904744,3.3458292 c 0.06741,-0.1839875 0.1479,-0.3662426 0.272577,-0.5189034 0.115088,-0.1650072 0.284578,-0.2525069 0.456623,-0.3459134 0.193006,-0.1071699 0.404328,-0.165294 0.62426,-0.1727507 0.23862,-0.00398 0.475187,0.042477 0.705832,0.099748 0.16314,0.048471 0.330912,0.08866 0.486336,0.1597653 0.08912,0.040774 0.174077,0.090114 0.261342,0.1347353 0.37528,0.2032913 0.768223,0.3666445 1.175647,0.4921271 0.445648,0.1225992 0.902518,0.1929175 1.36217,0.2339787 0.475629,0.048084 0.9509,0.024717 1.423083,-0.041357 0.353224,-0.062067 0.697227,-0.1749523 1.02797,-0.3124087 0.105875,-0.053229 0.529584,-0.2234887 0.454435,-0.4036327 -0.231296,-0.5544608 -0.279551,-0.5192892 -0.549796,-0.4627111 -0.202023,0.079545 -0.40503,0.151916 -0.614305,0.210408 -0.256995,0.080995 -0.517075,0.1493724 -0.779513,0.2099513 -0.237225,0.059235 -0.476091,0.1030996 -0.719468,0.1255434 -0.196117,0.018225 -0.39303,7.144e-4 -0.587147,-0.027965 -0.233902,-0.03678 -0.471821,-0.058183 -0.690438,0.056534 -0.05982,0.031389 -0.110718,0.077433 -0.166077,0.1161497 -0.348242,0.344484 -0.407492,0.8263747 -0.458777,1.2902925 -0.03685,0.4388897 -0.04559,0.8798853 -0.03428,1.3200221 0.01828,0.3783634 0.03398,0.7567332 0.04163,1.135467 0.0057,0.3425912 0.0064,0.6852356 0.0068,1.0278652 -0.01437,0.3665749 -0.03092,0.7329488 -0.05573,1.0989683 -0.02016,0.3880887 -0.04685,0.7756372 -0.09251,1.1616071 -0.03439,0.3437178 -0.09226,0.6843928 -0.127283,1.0279668 -0.0332,0.227684 -0.0073,0.46117 -0.04782,0.687544 -0.01976,0.08676 -0.02998,0.175426 -0.04723,0.26262 -0.0029,0.01472 -0.01921,0.05678 -0.01588,0.04214 0.0027,-0.01211 0.0084,-0.02335 0.01259,-0.03503 0.0397,-0.083 0.163629,-0.0963 0.04422,-0.09386 -0.07231,-0.0077 -0.151797,0.01513 -0.222689,-0.0054 -0.03576,-0.01034 -0.06776,-0.03093 -0.10242,-0.0445 -0.163682,-0.07591 -0.301287,-0.201544 -0.412756,-0.341977 0.107559,0.05313 -0.136673,-0.121762 -0.08843,-0.115907 0.01701,0.0021 0.03403,0.02541 0.02971,0.042 -0.04228,0.162365 -0.05434,0.34916 -0.164513,0.475692 -0.0655,0.07523 -0.204033,0.0052 -0.296026,0.04374 0.160433,0.142918 0.322792,0.28374 0.488455,0.420549 0.07182,0.03149 0.138237,0.08086 0.215472,0.09448 0.367289,0.06474 0.59808,-0.217291 0.793739,-0.473545 0.206044,-0.283785 0.382426,-0.58779 0.546494,-0.897325 0.177896,-0.336212 0.353862,-0.673783 0.542698,-1.004001 0.164544,-0.277668 0.355986,-0.5424202 0.598649,-0.7570197 0.106452,-0.080221 0.213153,-0.1798643 0.344466,-0.2174169 0.07205,2.91e-4 0.156636,0.026016 0.230283,0.051204 0.167158,0.079329 0.336142,0.1564899 0.510399,0.2189644 0.121868,0.058562 0.257305,0.075317 0.383263,0.1210558 0.149034,0.051843 0.302014,0.1008891 0.462475,0.085546 0.04866,-0.00465 0.09558,-0.020547 0.143376,-0.030821 0.295933,-0.1100042 0.453818,-0.3734541 0.597138,-0.6371074 0.146155,-0.3088069 0.242244,-0.6391516 0.331329,-0.9681676 0.094,-0.3828457 0.172596,-0.7691318 0.266875,-1.1520207 0.09891,-0.39839 0.190254,-0.7986154 0.286941,-1.1976158 0.0923,-0.3613644 0.176691,-0.7245178 0.260299,-1.0879693 0.07307,-0.3018626 0.115433,-0.1807741 -0.718455,-0.073157 -0.02729,0.00352 0.0021,0.05501 0.0021,0.08253 2.36e-4,0.1239504 -0.0042,0.2506128 -0.0075,0.374178 -0.02368,0.5168381 -0.0635,1.0322401 -0.112895,1.5471589 -0.06812,0.5042803 -0.09354,1.0122099 -0.123375,1.5196844 -0.0309,0.4978471 -0.0463,0.9964415 -0.05478,1.4951162 -0.01349,0.3542528 -0.0029,0.7072647 0.051,1.0576707 0.05997,0.354924 0.178604,0.694364 0.318423,1.024708 0.117811,0.215486 0.220959,0.468952 0.430438,0.615358 0.04952,0.03461 0.105873,0.05825 0.158808,0.08738 0.316016,0.116631 0.604472,-0.0065 0.892683,-0.132502 0.229119,-0.09095 0.433493,-0.229987 0.625324,-0.382802 0.133427,-0.113764 0.268147,-0.227432 0.391446,-0.352313 0.10156,-0.112817 0.22184,-0.207414 0.33601,-0.307302 0.108969,-0.09864 0.226055,-0.187403 0.335637,-0.285232 0.0983,-0.08593 0.191442,-0.1782 0.273508,-0.27969 0.141047,-0.214738 0.139216,-0.4680896 0.144844,-0.7153435 0.0036,-0.3199434 0.0021,-0.6399196 0.0016,-0.959876 0.0068,-0.287846 0.05146,-0.5730782 0.0963,-0.8569812 0.0042,-0.019489 0.02291,-0.075505 0.01254,-0.058471 -0.245618,0.4040754 0.225763,0.076801 -0.749242,0.059252 -0.0333,-6.085e-4 0.0046,0.066465 0.0075,0.099649 0.0378,0.4349867 -0.0011,-0.055364 0.03649,0.4349367 0.03645,0.4574889 0.03801,0.9166481 0.06064,1.3747588 0.03589,0.2647772 0.03939,0.5541872 0.150333,0.8031622 0.02281,0.05118 0.05361,0.09841 0.08042,0.147616 0.225388,0.285371 0.456179,0.32659 0.800955,0.296939 0.337007,-0.06975 0.645583,-0.237149 0.901459,-0.466457 0.05948,-0.05331 0.11317,-0.112751 0.169757,-0.169126 0.339529,-0.360499 0.499588,-0.8195773 0.619633,-1.2893847 0.09085,-0.3247213 0.115403,-0.660786 0.158808,-0.9933601 0.02532,-0.153955 0.04118,-0.3089492 0.05146,-0.4645499 5.29e-4,-0.009 0.01095,-0.026977 0.0019,-0.026996 -0.263789,-5.556e-4 -0.528833,-0.00421 -0.790966,0.025302 -0.02109,0.00238 2.64e-4,0.042462 5.29e-4,0.063694 7.94e-4,0.1345862 2.64e-4,0.2691781 2.64e-4,0.403765 -2.64e-4,0.4685903 -5.29e-4,0.9371809 -7.93e-4,1.4057715 0.01659,0.2588691 -0.04028,0.5455222 0.05902,0.7945032 0.0227,0.05695 0.05663,0.10877 0.08495,0.163155 0.04921,0.04713 0.08961,0.105662 0.147625,0.141394 0.297582,0.183276 0.639373,0.07567 0.936892,-0.03729 0.296145,-0.119628 0.54469,-0.314083 0.764738,-0.541492 0.187743,-0.2041331 0.311,-0.4535058 0.455293,-0.6876554 0.17449,-0.2466737 0.351811,-0.4911783 0.538853,-0.7285188 0.150312,-0.1892835 0.28847,-0.3876074 0.417809,-0.5916724 0.116197,-0.1850649 0.206618,-0.3846044 0.292989,-0.5848715 0.0543,-0.1405853 0.129505,-0.2687412 0.210031,-0.3952729 0.06784,-0.1137883 0.131218,-0.2298147 0.202824,-0.3412829 0.05703,-0.077953 0.01757,0.0123 -0.071,0.035578 -0.150117,0.039455 -0.16219,0.021564 -0.276074,-0.019084 0.155546,0.2527967 0.230052,0.5368333 0.297259,0.8229831 0.08497,0.3866464 0.113424,0.7815656 0.127878,1.1761321 -7.93e-4,0.1548469 0.01701,0.3109696 -0.0056,0.465206 -0.02162,0.1475066 -0.07845,0.283831 -0.137332,0.4192482 -0.104614,0.1888903 -0.205825,0.3850065 -0.341583,0.5543215 -0.04333,0.05404 -0.118006,0.123917 -0.166703,0.171507 -0.174427,0.13949 -0.377661,0.233361 -0.590375,0.297194 -0.11942,0.01367 -0.04757,-0.03202 0.0011,-3.18e-4 0.01318,0.0086 0.02368,0.02069 0.0355,0.03103 0.05411,0.103372 0.07715,0.114008 0.05482,0.250945 -0.0064,0.03922 -0.03178,0.07286 -0.04842,0.108943 -0.0031,0.0068 -0.01826,0.02125 -0.0109,0.01969 0.01688,-0.0036 0.02921,-0.01849 0.04435,-0.02681 0.0177,-0.0097 0.03606,-0.01819 0.05409,-0.02728 0.152702,-0.07967 0.309798,-0.149362 0.468091,-0.216977 0.136863,-0.07203 0.282405,-0.125475 0.427275,-0.178863 0.207973,-0.08775 0.405419,-0.196079 0.597609,-0.313873 0.125918,-0.07661 0.259154,-0.144621 0.373359,-0.239034 0.09623,-0.079548 0.137277,-0.1279395 0.22124,-0.2166038 0.221051,-0.2452288 0.399669,-0.5234834 0.61551,-0.773357 0.199269,-0.2426589 0.409546,-0.4766807 0.599874,-0.7265201 0.144137,-0.1727451 0.251682,-0.3658098 0.340424,-0.5713854 0.07303,-0.1771203 0.149674,-0.3528613 0.205144,-0.5364385 0.02307,-0.1200433 0.03857,-0.1297861 0.08083,-0.2236674 -0.0059,0.025164 -0.0021,0.00494 0.02008,-0.030515 0.0092,-0.014682 -0.04276,0.051942 -0.02731,0.044153 0.0037,-0.00188 0.08144,-0.076862 0.08352,-0.078856 C 57.812465,6.8153837 57.97948,6.6593703 57.882458,6.4017011 57.842678,6.29605 57.728425,6.236614 57.65141,6.1540704 c -0.06564,-0.013872 -0.130066,-0.036044 -0.196927,-0.041616 -0.04708,-0.00392 -0.09453,0.00538 -0.141078,0.013446 -0.195895,0.033934 -0.344104,0.1461222 -0.486513,0.2765261 -0.254696,0.2997247 -0.355674,0.6821056 -0.43129,1.0593831 -0.07362,0.4321829 -0.09423,0.871388 -0.09053,1.3091041 0.02947,0.4792631 0.175824,0.8966391 0.38199,1.3246493 0.127648,0.256721 0.306586,0.491571 0.544629,0.655597 0.04415,0.03043 0.09173,0.05556 0.137591,0.08335 0.229925,0.107262 0.492374,0.195007 0.750768,0.174036 0.06155,-0.005 0.121666,-0.02118 0.182499,-0.03177 0.285928,-0.0838 0.500436,-0.287636 0.699582,-0.499032 0.189455,-0.199209 0.320308,-0.442713 0.423784,-0.6951142 0.08749,-0.2234872 0.167425,-0.4497594 0.239572,-0.6786298 0.08552,-0.3178408 0.128886,-0.6449542 0.158009,-0.9721924 0.0182,-0.2358253 0.02421,-0.4722852 0.0291,-0.7086759 -0.26447,0.017322 -0.533863,-0.00169 -0.793412,0.05197 -0.03658,0.00756 1.9e-5,0.074708 6e-6,0.1120619 -1.12e-4,0.2731045 -5.3e-4,0.5462093 -5.3e-4,0.8193138 -0.0074,0.4525848 -0.0021,0.904178 0.07113,1.3514657 0.05136,0.2459759 0.100756,0.5155689 0.271278,0.7122209 0.03709,0.04278 0.08235,0.07773 0.123531,0.116601 0.249626,0.1728 0.537186,0.195235 0.830178,0.167601 0.192439,-0.03329 0.388527,-0.07947 0.564224,-0.16812 0.146333,-0.07383 0.189039,-0.111664 0.320013,-0.205239 0.301538,-0.217744 0.531659,-0.5084517 0.754468,-0.801994 0.163591,-0.213351 0.295237,-0.4474646 0.437361,-0.6748727 0.124487,-0.2065596 0.192082,-0.4333962 0.222083,-0.6708383 0.01495,-0.2547728 0.0127,-0.5096968 0.02695,-0.7645625 0.04095,-0.3536968 0.08348,-0.7074738 0.128368,-1.0608079 0.0667,-0.4771105 0.0789,-0.9587804 0.107921,-1.4388899 0.0074,-0.109165 0.01609,-0.2410386 0.024,-0.3512981 0.0029,-0.040352 0.04907,-0.1268289 0.009,-0.1210303 -0.04204,0.00609 0.01291,0.1205458 -0.02941,0.1239822 -0.79988,0.06493 -0.755528,-0.3384947 -0.747559,0.095318 0.006,0.6712132 0.005,1.3424712 0.0051,2.0137059 -9e-5,0.56565 -2.64e-4,1.1312998 -5.29e-4,1.6969499 -8.7e-5,0.4226784 -9.8e-5,0.8453569 -1.08e-4,1.2680354 -3e-6,0.2418419 0,0.4836833 0,0.7255253 2e-6,0.134574 2e-6,0.269148 2e-6,0.403721 0.264584,-0.02543 0.534752,-0.01654 0.79375,-0.0763 0.0347,-0.008 7.94e-4,-0.07124 0,-0.106841 -0.0052,-0.2066 -0.02077,-0.413219 -0.03131,-0.619601 -0.01312,-0.2206414 -0.02763,-0.4405207 0.01762,-0.6580791 0.06087,-0.1932813 0.187735,-0.3519967 0.319669,-0.501454 0.163484,-0.1756984 0.34017,-0.3386153 0.511665,-0.5064088 0.189687,-0.195381 0.402034,-0.3658468 0.59877,-0.5538978 0.142748,-0.1482317 0.289753,-0.2915589 0.413573,-0.4563586 0.175676,-0.2781853 0.151035,-0.1887275 -0.579911,-0.559041 -0.05015,-0.025408 -0.08566,0.072843 -0.128151,0.1096653 -0.144444,0.1251863 -0.285925,0.2536534 -0.427318,0.382253 -0.259905,0.242968 -0.524766,0.4807273 -0.768337,0.7402637 -0.16152,0.1653889 -0.313499,0.3407519 -0.437147,0.5363639 -0.120803,0.3008317 -0.08434,0.4752988 0.178861,0.6777643 0.115904,0.089158 0.29418,0.1145709 0.432345,0.1499526 0.209201,0.041149 0.414573,0.094432 0.608335,0.1841701 0.03448,0.018997 0.0694,0.033555 0.09693,0.062383 0.04661,0.048791 0.100981,0.1981648 0.123828,0.2584628 0.09306,0.3017906 0.200734,0.5993316 0.361884,0.8716666 0.137908,0.203262 0.343437,0.346895 0.593973,0.365135 0.05944,0.0043 0.119179,-0.0013 0.178769,-0.002 0.198279,-0.03389 0.388056,-0.09767 0.553156,-0.214851 0.04808,-0.03412 0.123428,-0.103817 0.170434,-0.146187 0.02315,-0.0236 0.04629,-0.0472 0.06944,-0.0708 0.389022,-0.404576 -0.183137,-0.954735 -0.572156,-0.550159 v 0 c -0.0098,0.01063 -0.01955,0.02127 -0.02931,0.0319 -0.0078,0.0071 -0.07727,0.0822 -0.09521,0.09319 -0.04535,0.0278 -0.09932,0.03425 -0.142766,0.06451 -0.01127,0.0071 -0.02765,0.0027 -0.03869,0.01016 -0.0021,0.0015 0.05199,0.0707 -0.0096,0.0064 C 64.791176,10.11603 64.728399,9.8415971 64.634673,9.5873132 64.493737,9.2549336 64.347518,8.999594 64.006113,8.8431686 63.769133,8.7375853 63.522682,8.6607982 63.267306,8.613206 c -0.03726,-0.00951 -0.07446,-0.01928 -0.111792,-0.028538 -0.02148,-0.00533 -0.04248,-0.015071 -0.0646,-0.015208 -0.0053,-3.31e-5 0.0031,0.010303 0.0059,0.014843 0.02299,0.037576 0.06041,0.068588 0.07127,0.1112774 0.04223,0.1661348 0.02558,0.1671119 -0.03186,0.2737385 0.08716,-0.1542571 0.222584,-0.2779673 0.339752,-0.4085897 0.228534,-0.2445816 0.479512,-0.4663385 0.723114,-0.6956954 0.127778,-0.1162495 0.160761,-0.1470271 0.28893,-0.260631 0.360231,-0.3192915 0.258236,-0.1207103 -0.323437,-0.7389405 -0.0024,-0.00267 -0.0029,0.00675 -0.0043,0.010128 -0.09049,0.1316358 -0.218799,0.2317436 -0.322347,0.352348 -0.198683,0.1904741 -0.414599,0.3617823 -0.605512,0.5604291 -0.185386,0.1820561 -0.37741,0.3578796 -0.552759,0.5498377 -0.224304,0.2569303 -0.421005,0.5389637 -0.502611,0.8758651 -0.0511,0.2811877 -0.05385,0.562928 -0.03071,0.8476398 0.0099,0.192836 0.02532,0.386055 0.03028,0.579079 7.93e-4,0.0356 -0.0347,0.09883 0,0.106841 0.258998,0.05976 0.529166,0.05086 0.79375,0.0763 0,-0.134575 0,-0.269149 -3e-6,-0.403724 0,-0.241835 -3e-6,-0.4836686 0,-0.7255031 1e-5,-0.4226221 2.1e-5,-0.8452442 1.08e-4,-1.2678663 1.33e-4,-0.5657266 2.65e-4,-1.1314528 5.3e-4,-1.6971791 -3.8e-5,-0.6766229 0.0011,-1.3532704 -0.0052,-2.0298708 -0.0091,-0.4121052 0.05207,-0.3405662 -0.764747,-0.4159708 -0.05307,-0.0049 -0.03352,0.1015037 -0.04342,0.1538682 -0.02941,0.1555755 -0.0075,0.3275949 -0.03378,0.4836771 -0.0277,0.4626467 -0.03918,0.9268007 -0.103034,1.3865815 -0.04718,0.3718676 -0.09297,0.7441189 -0.133464,1.1166551 -0.01326,0.2387336 -0.01519,0.477315 -0.02278,0.7161996 -0.01201,0.1214355 -0.04587,0.2364843 -0.107127,0.3431018 -0.12922,0.2073376 -0.248438,0.4209849 -0.396732,0.6158715 -0.17516,0.231871 -0.351433,0.4655388 -0.588164,0.6389867 -0.02977,0.022185 -0.124883,0.095598 -0.16488,0.117321 -0.104629,0.056824 -0.224218,0.085188 -0.339646,0.1092729 -0.03932,0.00578 -0.07417,0.012896 -0.113882,0.011827 -0.01394,-3.704e-4 -0.103938,-0.021659 -0.121406,-0.010591 -0.003,0.00193 2.64e-4,0.00719 5.29e-4,0.01079 5.29e-4,0.00491 0.0054,0.011708 0.0016,0.01474 -0.0149,0.011599 -0.02745,-0.02719 -0.03518,-0.044427 -0.04558,-0.1016961 -0.0648,-0.213064 -0.08699,-0.3213219 -0.06996,-0.4029115 -0.06264,-0.8115957 -0.06015,-1.2193919 1.77e-4,-0.2732928 5.29e-4,-0.546586 5.29e-4,-0.8198791 1.3e-5,-0.038465 0.0375,-0.1068711 -1.1e-5,-0.1153965 -0.258921,-0.05885 -0.529275,-0.043369 -0.793911,-0.065053 -0.0045,0.2186643 -0.0098,0.4373967 -0.02622,0.6555679 -0.02347,0.270165 -0.05864,0.5399106 -0.124423,0.8033848 -0.06604,0.2100185 -0.139557,0.417517 -0.219604,0.6226317 -0.06204,0.1631538 -0.147453,0.3201784 -0.267203,0.4482087 -0.08832,0.096242 -0.182491,0.189203 -0.289232,0.265034 -0.08963,0.05176 -0.270462,-0.01992 -0.363281,-0.0527 -0.166901,-0.08862 -0.287643,-0.2279521 -0.36772,-0.3992336 -0.152344,-0.3124126 -0.274753,-0.6365533 -0.302646,-0.9866455 -0.0046,-0.3839676 0.01421,-0.7693565 0.07582,-1.1488245 0.0418,-0.2213428 0.0963,-0.4396899 0.202981,-0.6400229 0.01024,-0.011938 0.03088,-0.044864 0.04486,-0.056004 0.0049,-0.00392 0.02109,-0.0038 0.01685,-0.00846 -0.03133,-0.034611 -0.149834,0.090952 -0.133882,-0.041147 -0.05935,-0.073988 -0.151244,-0.130978 -0.178044,-0.2219624 -0.06637,-0.2253453 0.0086,-0.2482649 0.101545,-0.3712019 0.0058,-0.00766 -0.01373,0.013446 -0.0209,0.019825 -0.09425,0.08379 -0.03354,0.025789 -0.102275,0.093126 -0.09932,0.095619 -0.199303,0.1896428 -0.253619,0.3196215 -0.04066,0.1046183 -0.100163,0.2029534 -0.114808,0.316866 -0.04352,0.1542431 -0.115612,0.2987405 -0.173196,0.4479213 -0.06279,0.1471229 -0.137898,0.2832272 -0.243724,0.4052454 -0.179199,0.2381189 -0.382227,0.457635 -0.569722,0.6891388 -0.206639,0.2422398 -0.385059,0.5053814 -0.59177,0.7469031 -0.03749,0.040447 -0.07169,0.084338 -0.113164,0.1206905 -0.09459,0.082914 -0.213284,0.1336619 -0.317815,0.2016421 -0.148056,0.090947 -0.299231,0.1748544 -0.457991,0.2460188 -0.156975,0.058287 -0.315397,0.1157293 -0.463961,0.1934873 -0.177741,0.07612 -0.354076,0.154946 -0.525629,0.244371 -0.261567,0.140653 -0.487865,0.293337 -0.450302,0.63994 0.007,0.06423 0.0456,0.120897 0.06839,0.181346 0.03104,0.03876 0.05761,0.08157 0.09311,0.116297 0.206142,0.201646 0.493988,0.232776 0.76294,0.166797 0.33338,-0.105416 0.650486,-0.257346 0.914077,-0.491537 0.107029,-0.107097 0.159155,-0.153239 0.254865,-0.275316 0.170066,-0.216914 0.300532,-0.464595 0.427,-0.7080509 0.03029,-0.074305 0.06438,-0.1471676 0.09085,-0.2229141 0.112821,-0.3228285 0.133855,-0.658414 0.112996,-0.9972564 -0.01675,-0.446568 -0.0511,-0.8933555 -0.148929,-1.3305885 C 55.302149,6.9701605 55.18002,6.5368923 54.890921,6.1922212 54.81956,6.1410836 54.759777,6.0675995 54.676841,6.0388081 54.391258,5.9396672 54.160515,6.0902862 54.0138,6.3164875 c -0.0711,0.112063 -0.137136,0.2269488 -0.203268,0.3419814 -0.103135,0.1621546 -0.19748,0.3284985 -0.269309,0.5072951 -0.0698,0.1622145 -0.141309,0.3244525 -0.234842,0.4746297 -0.114366,0.1812798 -0.237355,0.3569161 -0.370596,0.5249072 -0.20569,0.2614146 -0.401712,0.5301072 -0.591193,0.8035006 -0.115067,0.1871306 -0.213291,0.3861245 -0.353849,0.5560328 -0.136466,0.1467508 -0.292999,0.2712706 -0.479131,0.3498844 -0.120891,0.049568 -0.06332,0.029119 -0.179004,0.065268 -0.02135,0.00667 -0.0769,0.00927 -0.0619,0.025855 0.187037,0.2068743 -0.0392,-0.1055489 0.112332,0.1138413 0.0037,0.01624 0.01127,0.03206 0.01114,0.04872 -6.9e-5,0.0089 -0.0093,-0.01556 -0.01132,-0.02426 -0.0056,-0.02422 -0.0093,-0.04894 -0.01143,-0.07371 -0.01397,-0.1589319 -7.94e-4,-0.3187719 -0.0056,-0.4779267 1.43e-4,-0.4685644 2.65e-4,-0.9371288 7.94e-4,-1.4056929 5.5e-5,-0.1374272 5.29e-4,-0.2748796 -2.65e-4,-0.4123058 -2.09e-4,-0.028642 0.02718,-0.081038 -0.0011,-0.085921 -0.798312,-0.1381058 -0.775256,-0.312716 -0.796174,-0.020042 -0.0092,0.1392484 -0.02379,0.2778065 -0.0467,0.4155517 -0.03826,0.3014096 -0.05988,0.6059088 -0.141142,0.9002707 -0.08268,0.3326106 -0.181028,0.6659684 -0.415467,0.9266031 -0.167765,0.1752639 -0.353775,0.3271949 -0.588407,0.4032019 -0.127328,0.01959 -0.06265,5.82e-4 -0.04288,0.07557 -0.02199,0.01801 -0.01021,0.01215 -0.02899,-0.05023 -0.0096,-0.03174 -0.0172,-0.06406 -0.02402,-0.0965 -0.02955,-0.140596 -0.04955,-0.2836041 -0.06041,-0.4268048 -0.0236,-0.4650393 -0.02395,-0.9312778 -0.06197,-1.3956713 -0.01392,-0.1812464 -0.02003,-0.2785244 -0.03819,-0.4540887 -0.0065,-0.063105 0.03251,-0.1561203 -0.0217,-0.1890866 -0.549124,-0.3339671 -0.724987,-0.4293206 -0.822878,0.044746 -0.05123,0.3252481 -0.100787,0.6521641 -0.105989,0.9820278 5.29e-4,0.3136619 0.0019,0.6273424 -0.0013,0.9409932 -2.65e-4,0.015409 -0.01516,0.2694128 -0.01127,0.2818628 0.004,0.012809 0.04268,-0.083035 0.02784,-0.029071 -0.04363,0.05763 -0.118898,0.1204526 -0.176871,0.1738346 -0.100986,0.09857 -0.222866,0.174845 -0.323435,0.274306 -0.130545,0.114669 -0.267364,0.223996 -0.383992,0.353057 -0.09558,0.105472 -0.214588,0.189928 -0.319066,0.286021 -0.135022,0.111809 -0.280728,0.209062 -0.444492,0.272928 -0.01212,0.0053 -0.262578,0.110778 -0.263861,0.112961 -0.0059,0.01 0.03087,0.01239 0.02265,0.02645 0.0038,0.0068 0.01013,0.02805 0.004,0.02313 -0.09638,-0.07769 -0.127354,-0.219095 -0.196318,-0.316323 -0.115554,-0.269814 -0.213773,-0.547103 -0.264679,-0.83717 -0.04935,-0.304827 -0.05135,-0.6127073 -0.04149,-0.9209582 0.0083,-0.4876369 0.02328,-0.9751957 0.05353,-1.4620216 0.02923,-0.4977281 0.05399,-0.9958835 0.121116,-1.4904519 0.05115,-0.5332907 0.09222,-1.067136 0.116258,-1.6024344 0.0028,-0.1116621 0.01064,-0.3361258 0.0057,-0.4509608 -0.0027,-0.063326 0.04142,-0.1651035 -0.01714,-0.1893777 -0.724548,-0.3003854 -0.736838,-0.3358909 -0.831906,0.058343 -0.0829,0.360453 -0.166542,0.7206096 -0.258172,1.0789687 -0.09646,0.3980749 -0.187479,0.7973983 -0.286264,1.1948345 -0.09284,0.377322 -0.171166,0.7577746 -0.262567,1.1353136 -0.07277,0.271916 -0.152259,0.5445172 -0.265983,0.8024175 -0.01283,0.025265 -0.02418,0.051334 -0.0385,0.075795 -0.01823,0.03116 -0.03954,0.060409 -0.05895,0.090838 -0.01299,0.020344 -0.07367,0.087826 -0.01156,0.077994 0.175554,0.026366 -0.116279,-0.012658 -0.134641,-0.040642 C 43.802646,8.642429 43.671315,8.6184392 43.548794,8.5647801 43.366999,8.5049978 43.199063,8.407906 43.020413,8.3397867 42.778997,8.2644937 42.528106,8.2190724 42.28012,8.2965027 c -0.227074,0.085436 -0.42949,0.2178002 -0.611831,0.3777972 -0.298952,0.2765999 -0.551362,0.5970521 -0.754022,0.9508696 -0.192538,0.3380799 -0.373716,0.6826255 -0.555192,1.0267555 -0.143052,0.272162 -0.298428,0.538675 -0.477477,0.788901 -0.0232,0.03105 -0.04602,0.0624 -0.06964,0.09313 -0.01569,0.02043 -0.03347,0.03929 -0.0483,0.06035 -0.0039,0.0055 -0.01387,0.01688 -0.0074,0.01876 0.0164,0.0048 0.03385,-0.0074 0.05088,-0.0061 0.131075,0.01034 0.103333,0.0092 0.202533,0.07906 -0.178054,-0.145866 -0.348712,-0.300395 -0.524742,-0.448693 -0.142002,-0.09029 -0.35274,-0.2634 -0.544235,-0.103804 -0.37537,0.31284 -0.216392,0.563886 -0.01336,0.808675 0.20696,0.241082 0.445043,0.456001 0.743935,0.576241 0.130646,0.04744 0.165706,0.06605 0.308681,0.0914 0.105992,0.01879 0.215657,0.0046 0.322411,0.0081 0.225467,-0.0097 0.431414,-0.06076 0.579686,-0.247137 0.02349,-0.03951 0.05053,-0.07713 0.0705,-0.118542 0.07227,-0.14991 0.07377,-0.321362 0.111879,-0.480548 0.03533,-0.24246 0.03036,-0.486849 0.05337,-0.730593 0.03396,-0.339302 0.09282,-0.675551 0.12587,-1.015043 0.04671,-0.3990219 0.0757,-0.7995127 0.09613,-1.2007149 0.02601,-0.3841293 0.04372,-0.768666 0.05754,-1.1534246 -2.64e-4,-0.3477199 -0.0011,-0.6954552 -0.0069,-1.0431354 -0.0077,-0.3804333 -0.02307,-0.7605265 -0.04175,-1.1405761 -0.01127,-0.4044204 -0.0021,-0.8096653 0.02992,-1.2130479 0.02727,-0.2559889 0.04834,-0.5189559 0.162509,-0.7538559 -2.64e-4,-0.00482 0.0013,-0.010308 -0.0011,-0.014467 -0.0027,-0.00454 -0.01275,-0.00393 -0.01288,-0.00921 -7.94e-4,-0.027987 0.236069,0.011851 0.262607,0.014131 0.25686,0.037399 0.517311,0.057163 0.776586,0.032872 0.278329,-0.026587 0.552326,-0.074655 0.823717,-0.1424025 0.274344,-0.063352 0.546396,-0.1344721 0.815073,-0.2190324 0.197072,-0.055323 0.39675,-0.1116136 0.581154,-0.2018874 0.188995,-0.1150389 -0.187293,0.1165519 -0.404029,-0.4910562 -0.05183,-0.1453032 0.301509,-0.2930847 0.09635,-0.1898029 -0.02851,0.014352 -0.05713,0.028469 -0.0857,0.042704 -0.266668,0.1140626 -0.54714,0.2028801 -0.831731,0.2581884 -0.41199,0.059442 -0.826627,0.078582 -1.241816,0.036552 C 41.914653,2.6027664 41.512698,2.5408421 41.119779,2.435661 40.756326,2.3251898 40.407457,2.1768373 40.073124,1.9957832 40.011352,1.964202 39.80212,1.8562455 39.741197,1.8292001 39.552443,1.7454071 39.350944,1.6939354 39.153142,1.637103 38.845606,1.562431 38.530768,1.5045084 38.212895,1.5158128 c -0.34403,0.02397 -0.655032,0.098802 -0.958993,0.2683825 -0.268447,0.1470029 -0.525555,0.3064405 -0.706896,0.5603798 -0.181943,0.2451594 -0.324389,0.5151897 -0.412247,0.8087446 -0.136128,0.544508 0.633923,0.7370207 0.770049,0.1925127 z" />
        <circle
            stroke="black"
            stroke-linecap="round"
            stroke-linejoin="round"
            stroke-width=0.25
            id="signatureJT3"
            cx="59.710934"
            cy="5.7257056"
            r="0.0013512602" />
        <path
            stroke="black"
            stroke-linecap="round"
            stroke-linejoin="round"
            stroke-width=0.25
            id="signatureJT4"
            d="m 59.347703,6.0859053 c 0.10904,0.1256924 0.0569,0.064445 0.156643,0.1835552 0.360635,0.4300707 0.968846,-0.079947 0.608211,-0.5100172 v 0 c -0.102629,-0.122242 -0.05409,-0.065941 -0.145042,-0.1693897 -0.35062,-0.4382751 -0.970433,0.057576 -0.619812,0.4958517 z" />
        <path
            stroke="black"
            stroke-linecap="round"
            stroke-linejoin="round"
            stroke-width=0.25
            id="signatureJT5"
            d="m 54.329419,4.9802311 c 0.407699,-0.1789345 0.82322,-0.3378851 1.24119,-0.4908383 0.312266,-0.1147485 0.621744,-0.2342213 0.914445,-0.3929496 0.0222,-0.011464 0.04437,-0.022929 0.06656,-0.034395 0.498353,-0.2581934 0.133212,-0.9629709 -0.365141,-0.7047775 v 0 c -0.02679,0.013907 -0.05358,0.027816 -0.08037,0.041724 C 55.8479,3.539608 55.573046,3.6414093 55.297818,3.7439909 54.866423,3.901876 54.437613,4.0661478 54.016745,4.2506595 53.500861,4.471753 53.813535,5.2013246 54.329419,4.9802311 Z" />
        <circle
            stroke="black"
            stroke-linecap="round"
            stroke-linejoin="round"
            stroke-width=0.25
            id="signatureJT6"
            cx="19.733236"
            cy="3.5274439"
            r="0.0013512602" />
        <path
            stroke="black"
            stroke-linecap="round"
            stroke-linejoin="round"
            stroke-width=0.25
            id="signatureJT7"
            d="m 44.087205,7.3098201 c 0.488419,-0.2416198 0.968307,-0.4982847 1.434534,-0.7804314 0.350033,-0.2172163 0.699053,-0.4365008 1.043758,-0.6620711 0.125965,-0.093244 0.26476,-0.1597863 0.406921,-0.223375 0.08312,-0.029092 0.165166,-0.060672 0.24697,-0.093239 0.521046,-0.2086404 0.225986,-0.9455105 -0.295061,-0.7368701 v 0 c -0.09147,0.036908 -0.184401,0.069546 -0.276206,0.1056301 -0.180443,0.080824 -0.35642,0.1687018 -0.517851,0.2840638 -0.336407,0.2210742 -0.678299,0.4341545 -1.019934,0.6470491 -0.447485,0.2716398 -0.909135,0.516872 -1.378109,0.7492923 -0.50201,0.2510058 -0.147034,0.9609574 0.354978,0.7099513 z" />
        
    </g>
    </svg>